# xmcd
# 
# Track frame offsets:
#     150
#     19828
#     44620
#     77242
# 
# Disc length: 1404
# 
# Revision: 0
# Processed by: cddbd v1.5.2PL0 Copyright (c) Steve Scherf et al.
# Submitted via: BonkEnc v1.0.8
# 
DISCID=2c057a04
DTITLE=Innerpartysystem - Don't Stop
DYEAR=0
DGENRE=
TTITLE0=Don't Stop - Album Version ( Eplicit )
TTITLE1=Don't Stop - Mad Decent Remix
TTITLE2=Don't Stop - Cagedbaby Mix
TTITLE3=Don't Stop - Richard Vission Remix
EXTD=
EXTT0=
EXTT1=
EXTT2=
EXTT3=
PLAYORDER=
